<!-- <svg width="90" height="90" viewBox="0 0 250 250" style="fill:#151513; color:#fff; position: absolute; top: 0; border: 0; left: 0; transform: scale(-1, 1); z-index: 9999" aria-hidden="true"><path d="M0,0 L115,115 L130,115 L142,142 L250,250 L250,0 Z"></path><path d="M128.3,109.0 C113.8,99.7 119.0,89.6 119.0,89.6 C122.0,82.7 120.5,78.6 120.5,78.6 C119.2,72.0 123.4,76.3 123.4,76.3 C127.3,80.9 125.5,87.3 125.5,87.3 C122.9,97.6 130.6,101.9 134.4,103.2" fill="currentColor" style="transform-origin: 130px 106px;" class="octo-arm"></path><path d="M115.0,115.0 C114.9,115.1 118.7,116.5 119.8,115.4 L133.7,101.6 C136.9,99.2 139.9,98.4 142.2,98.6 C133.8,88.0 127.5,74.4 143.8,58.0 C148.5,53.4 154.0,51.2 159.7,51.0 C160.3,49.4 163.2,43.6 171.4,40.1 C171.4,40.1 176.1,42.5 178.8,56.2 C183.1,58.6 187.2,61.8 190.9,65.4 C194.5,69.0 197.7,73.2 200.1,77.6 C213.8,80.2 216.3,84.9 216.3,84.9 C212.7,93.1 206.9,96.0 205.4,96.6 C205.1,102.4 203.0,107.8 198.3,112.5 C181.9,128.9 168.3,122.5 157.7,114.1 C157.9,116.9 156.7,120.9 152.7,124.9 L141.0,136.5 C139.8,137.7 141.6,141.9 141.8,141.8 Z" fill="currentColor" class="octo-body"></path></svg> -->

<svg xmlns="http://www.w3.org/2000/svg" viewBox="0 0 24 24" width="40" height="40" fill="white">
  <path d="M12 .297c-6.63 0-12 5.373-12 12 0 5.303 3.438 9.8 8.205 11.385.6.113.82-.258.82-.577v-2.234c-3.338.724-4.033-1.415-4.033-1.415-.546-1.387-1.333-1.757-1.333-1.757-1.087-.744.083-.729.083-.729 1.205.084 1.838 1.236 1.838 1.236 1.07 1.835 2.809 1.304 3.495.997.108-.775.418-1.305.762-1.606-2.665-.3-5.466-1.335-5.466-5.931 0-1.31.467-2.381 1.235-3.221-.123-.303-.535-1.523.117-3.176 0 0 1.008-.322 3.3 1.23a11.5 11.5 0 013.003-.404c1.02.005 2.046.137 3.004.403 2.29-1.552 3.297-1.23 3.297-1.23.653 1.653.241 2.873.119 3.176.77.84 1.235 1.911 1.235 3.221 0 4.609-2.803 5.628-5.475 5.92.43.372.814 1.102.814 2.222v3.293c0 .321.218.694.824.576C20.565 22.092 24 17.593 24 12.297c0-6.627-5.373-12-12-12"/>
</svg>
